<svg id="Layer_1" data-name="Layer 1" xmlns="http://www.w3.org/2000/svg" viewBox="0 0 24 24"><defs><style>.cls-1{fill:#1e2859;}</style></defs><path class="cls-1" d="M5.09,11.29c-1.48-.38-2-.78-2-1.4S3.79,8.68,4.9,8.68s1.59.56,1.63,1.37H8A2.59,2.59,0,0,0,5.88,7.57V6.14h-2V7.55A2.54,2.54,0,0,0,1.63,9.9c0,1.51,1.25,2.26,3.07,2.7,1.63.39,2,1,2,1.57,0,.45-.32,1.17-1.76,1.17S3,14.74,3,14H1.52a2.72,2.72,0,0,0,2.4,2.5v1.42h2V16.48c1.27-.24,2.28-1,2.28-2.31C8.16,12.31,6.57,11.68,5.09,11.29Z"/><path class="cls-1" d="M16,5.47A6.53,6.53,0,1,0,22.48,12,6.53,6.53,0,0,0,16,5.47Zm2.29,3.92a1,1,0,1,1-1,1A1,1,0,0,1,18.24,9.39Zm-4.57,0a1,1,0,1,1-1,1A1,1,0,0,1,13.67,9.39ZM16,15.59a3.61,3.61,0,0,1-3.35-2.28H13.7a2.61,2.61,0,0,0,4.51,0H19.3A3.59,3.59,0,0,1,16,15.59Z"/></svg>