<svg id="Layer_1" data-name="Layer 1" xmlns="http://www.w3.org/2000/svg" viewBox="0 0 24 24"><defs><style>.cls-1{fill:#1e2859;}</style></defs><path class="cls-1" d="M17.47,5.47A6.53,6.53,0,1,0,24,12,6.53,6.53,0,0,0,17.47,5.47Zm2.29,3.92a1,1,0,1,1-1,1A1,1,0,0,1,19.76,9.39Zm-4.57,0a1,1,0,1,1-1,1A1,1,0,0,1,15.19,9.39Zm2.28,6.2a3.59,3.59,0,0,1-3.34-2.28h1.09a2.6,2.6,0,0,0,4.5,0h1.09A3.59,3.59,0,0,1,17.47,15.59ZM4.7,6.12H5.88v4.12a2.35,2.35,0,0,1-2.21,2.33v5.31H2.2V12.57A2.35,2.35,0,0,1,0,10.24V6.12H1.18v4.12H2.35V6.12H3.53v4.12H4.7Zm4.93,0V17.88H8.16v-4.7H6.69V8.47A2.91,2.91,0,0,1,9.63,6.12Z"/></svg>