<svg id="Layer_1" data-name="Layer 1" xmlns="http://www.w3.org/2000/svg" viewBox="0 0 24 24"><defs><style>.cls-1{fill:#1e2859;}</style></defs><path class="cls-1" d="M18.39,5.12a2,2,0,1,0-2-2A2,2,0,0,0,18.39,5.12ZM14.72,19.29l1-4.49,2.14,2V23h2V15.31l-2.14-2,.61-3A7.47,7.47,0,0,0,24,12.76v-2a5,5,0,0,1-4.38-2.45l-1-1.63a2.11,2.11,0,0,0-1.74-1c-.3,0-.51.1-.81.1L10.75,8v4.79h2V9.3l1.83-.72L13,16.84l-5-1-.4,2Z"/><rect class="cls-1" y="10.75" width="8.71" height="2.04"/><rect class="cls-1" y="6.69" width="8.71" height="2.04"/><polygon class="cls-1" points="6.12 14.8 0 14.8 0 16.84 5.71 16.84 6.12 14.8"/></svg>