<?xml version="1.0" encoding="utf-8"?>
<!-- Generator: Adobe Illustrator 25.4.1, SVG Export Plug-In . SVG Version: 6.00 Build 0)  -->
<svg version="1.1" id="Layer_1" xmlns="http://www.w3.org/2000/svg" xmlns:xlink="http://www.w3.org/1999/xlink" x="0px" y="0px"
	 viewBox="0 0 24 24" style="enable-background:new 0 0 24 24;" xml:space="preserve">
<style type="text/css">
	.st0{fill:#1E2859;}
</style>
<polygon class="st0" points="11.8,14 13.2,14 12.5,12.1 "/>
<path class="st0" d="M20.4,5.2H3.7C2.8,5.2,2,5.9,2,6.8v14.6l3.2-3.2h15.1c0.9,0,1.6-0.7,1.6-1.6V6.8C22,5.9,21.3,5.2,20.4,5.2z
	 M6.5,14.9l-0.6-0.6L8.1,12c-0.5-0.6-1-1.3-1.3-2h0.9c0.3,0.5,0.6,1,1,1.5c0.6-0.7,1.1-1.5,1.4-2.4H5.2V8.3h3.1V7.4h0.9v0.9h3.1v0.9
	H11c-0.3,1.1-0.9,2.1-1.7,2.9l0,0l1.1,1.1L10.1,14l-1.4-1.4L6.5,14.9z M14,16.2l-0.5-1.3h-2.1l-0.5,1.3h-0.9l2-5.3h0.9l2,5.3H14z
	 M17.7,15.1c-0.1,0.1-0.3,0.2-0.5,0.2c-0.3,0-0.6-0.3-0.6-0.6c0,0,0,0,0,0c0-0.2,0.1-0.3,0.2-0.4c0.1-0.1,0.3-0.2,0.5-0.2
	c0.3,0,0.6,0.2,0.6,0.6c0,0,0,0,0,0.1C17.9,14.8,17.8,14.9,17.7,15.1L17.7,15.1z M19.4,10.7c-0.1,0.2-0.2,0.4-0.3,0.5
	c-0.1,0.2-0.3,0.3-0.4,0.4L18.2,12c-0.1,0.1-0.2,0.3-0.3,0.4c-0.1,0.2-0.1,0.4-0.1,0.6h-1c0-0.2,0-0.5,0.1-0.7
	c0.1-0.2,0.2-0.4,0.3-0.5c0.1-0.2,0.3-0.3,0.4-0.4l0.4-0.4c0.1-0.1,0.2-0.3,0.3-0.4c0.1-0.2,0.1-0.3,0.1-0.5c0-0.3-0.1-0.6-0.4-0.8
	c-0.3-0.2-0.7-0.3-1-0.3c-0.3,0-0.7,0.1-1,0.2c-0.3,0.1-0.5,0.3-0.7,0.6l-0.7-0.5c0.3-0.4,0.6-0.6,1-0.8c0.5-0.2,1-0.3,1.5-0.3
	c0.4,0,0.8,0.1,1.2,0.2C18.7,8.6,19,8.8,19.2,9c0.2,0.3,0.3,0.6,0.3,1C19.5,10.2,19.5,10.5,19.4,10.7L19.4,10.7z"/>
</svg>
