<svg xmlns="http://www.w3.org/2000/svg" viewBox="0 0 1125 740"><defs><style>.cls-1{fill:#fff;}.cls-2{fill:#fef2db;}.cls-3{fill:#ebf7fa;}.cls-4{fill:#bbd3b2;}.cls-5{fill:#e8f1d9;}</style></defs><g id="home"><rect class="cls-1" width="1125" height="740"/><circle class="cls-2" cx="753.49" cy="75.05" r="40"/><path class="cls-3" d="M140.25,740H162.1a253.49,253.49,0,0,1,150.3-50.18L115.74,493.16,12.67,596.23A255.5,255.5,0,0,1,140.25,740Z"/><path class="cls-4" d="M12.67,596.23Q6.43,593.16,0,590.4v18.5Z"/><path class="cls-4" d="M0,740H140.25A255.5,255.5,0,0,0,12.67,596.23L0,608.9Z"/><path class="cls-5" d="M312.4,689.82,362.59,740H465.77a253.52,253.52,0,0,0-151.84-50.2Z"/><path class="cls-5" d="M362.59,740,312.4,689.82A253.49,253.49,0,0,0,162.1,740Z"/><path class="cls-5" d="M939,650.35,1028.61,740H1125V474.59A390.2,390.2,0,0,0,939,650.35Z"/><path class="cls-4" d="M939,650.35l-54-54L741.39,740H905.71A385.46,385.46,0,0,1,939,650.35Z"/><path class="cls-4" d="M905.71,740h122.9L939,650.35A385.46,385.46,0,0,0,905.71,740Z"/></g></svg>