<?xml version="1.0" encoding="utf-8"?>
<!-- Generator: Adobe Illustrator 25.4.1, SVG Export Plug-In . SVG Version: 6.00 Build 0)  -->
<svg version="1.1" id="Layer_1" xmlns="http://www.w3.org/2000/svg" xmlns:xlink="http://www.w3.org/1999/xlink" x="0px" y="0px"
	 viewBox="0 0 640 165" style="enable-background:new 0 0 640 165;" xml:space="preserve">
<style type="text/css">
	.st0{fill:#1E2859;}
	.st1{fill:#29BDE4;}
	.st2{fill:#1E6D00;}
	.st3{fill:#8BBA40;}
	.st4{fill:#FCC04C;}
</style>
<g>
	<g>
		<path class="st0" d="M12.8,66.5V18.7h70.4V7.6H0v121.4h12.8V77.6h24.8c0.4-3.9,1.2-7.6,2.5-11.1H12.8z"/>
		<path class="st1" d="M37.3,83.5c0,9,2,17,6.1,24c4,7,9.6,12.5,16.6,16.5c7,4,14.9,6,23.7,6c2.8,0,5.5-0.2,8.1-0.6
			c-0.7-3.5-1.1-7.1-1.2-10.9c-2.2,0.4-4.5,0.6-6.9,0.6c-6.4,0-12.1-1.5-17.2-4.4c-5.1-2.9-9.1-7.1-12.1-12.5
			c-3-5.4-4.5-11.6-4.5-18.7c0-2,0.1-4,0.4-5.9H37.6C37.4,79.5,37.3,81.4,37.3,83.5z"/>
		<path class="st1" d="M124.1,59.3c-4-6.9-9.5-12.4-16.5-16.3c-7-3.9-15-5.9-24-5.9c-8.9,0-16.8,2-23.8,5.9
			c-6.9,3.9-12.4,9.4-16.5,16.3c-1.3,2.3-2.4,4.6-3.3,7.1h13.3c0.3-0.6,0.6-1.2,0.9-1.7c3-5.3,7.1-9.5,12.1-12.4
			c5.1-2.9,10.9-4.4,17.3-4.4c6.5,0,12.3,1.5,17.3,4.4c5.1,2.9,9.1,7.1,12.1,12.4c1.8,3.3,3.1,7,3.8,11.1c3.7-1.7,7.7-2.8,12-3.4
			C128,67.7,126.4,63.3,124.1,59.3z"/>
		<path class="st0" d="M37.6,77.6h12.6c0.5-4,1.6-7.7,3.2-11.1H40.1C38.9,69.9,38,73.6,37.6,77.6z"/>
		<path class="st1" d="M124.1,107.5c4-7,6-15,6-24c0-0.1,0-0.2,0-0.3c-3.7,0.7-7.2,2-10.4,3.8c-0.8,0.5-1.6,1-2.4,1.5
			c-0.5,5-1.9,9.5-4.2,13.6c-2.5,4.6-5.8,8.3-9.9,11.1c-0.2,1.6-0.3,3.2-0.3,4.9c0,2.7,0.2,5.3,0.7,7.7c1.3-0.6,2.6-1.2,3.8-1.9
			C114.6,120,120.1,114.5,124.1,107.5z"/>
		<path class="st2" d="M177.4,94c-4-6.9-9.5-12.4-16.5-16.3c-2.8-1.6-5.7-2.8-8.8-3.7c-0.7,3-1,6.1-1,9.5c0,0.7,0,1.3,0.1,1.9
			c1.1,0.5,2.2,1,3.2,1.6c5.1,2.9,9.1,7.1,12.1,12.4c2.7,4.8,4.1,10.4,4.4,16.7c3.8,1.7,8,2.7,12.5,2.8c0-0.3,0-0.5,0-0.8
			C183.4,109,181.4,101,177.4,94z"/>
		<path class="st2" d="M117.4,88.5c0.2-1.6,0.3-3.3,0.3-5.1c0-2.7-0.2-5.2-0.6-7.7c-1.3,0.6-2.6,1.2-3.9,1.9
			c-6.9,3.9-12.4,9.4-16.5,16.3c-4.1,6.9-6.1,15-6.1,24.1c0,0.1,0,0.2,0,0.3c3.8-0.7,7.4-2,10.6-3.8c0.7-0.4,1.5-0.9,2.2-1.4
			c0.5-5.1,2-9.7,4.3-13.8C110.1,94.9,113.4,91.3,117.4,88.5z"/>
		<path class="st2" d="M166.5,136.8c-2.9,5.4-7,9.5-12.1,12.5c-5.1,2.9-10.9,4.4-17.5,4.4c-6.4,0-12.1-1.5-17.2-4.4
			c-5.1-2.9-9.1-7.1-12.1-12.5c-1.9-3.3-3.1-7-3.8-10.9c-3.8,1.7-7.8,2.8-12,3.5c1,4.6,2.6,8.9,4.9,12.8c4,7,9.6,12.5,16.6,16.5
			c7,4,14.9,6,23.7,6c8.9,0,16.9-2,23.9-6c7.1-4,12.6-9.5,16.6-16.5c2.2-3.8,3.7-7.9,4.7-12.3c-4.3-0.2-8.4-0.9-12.2-2.2
			C169.1,131,168,134,166.5,136.8z"/>
		<path class="st2" d="M137.1,82.6c0.5,0,1.1,0,1.6,0c0.1-3.8,0.5-7.3,1.2-10.7c-1,0-2-0.1-3-0.1c-2.7,0-5.3,0.2-7.9,0.6
			c0.7,3.4,1.1,7,1.1,10.8C132.3,82.8,134.7,82.6,137.1,82.6z"/>
		<path class="st1" d="M117.6,83.5c0,1.7-0.1,3.4-0.3,5.1c0.8-0.5,1.5-1,2.4-1.5c3.2-1.9,6.7-3.1,10.4-3.8c0-3.8-0.4-7.4-1.1-10.8
			c-4.3,0.6-8.3,1.7-12,3.4C117.4,78.2,117.6,80.8,117.6,83.5z"/>
		<path class="st2" d="M103.1,118.2c0-1.7,0.1-3.3,0.3-4.9c-0.7,0.5-1.4,1-2.2,1.4c-3.2,1.9-6.8,3.1-10.6,3.8
			c0,3.8,0.4,7.5,1.2,10.9c4.2-0.6,8.2-1.8,12-3.5C103.3,123.4,103.1,120.9,103.1,118.2z"/>
		<path class="st3" d="M155.6,64.7c3-5.3,7.1-9.5,12.1-12.4c5.1-2.9,10.9-4.4,17.3-4.4c6.5,0,12.3,1.5,17.3,4.4
			c5.1,2.9,9.1,7.1,12.1,12.4c1.8,3.3,3.1,7,3.8,11.1c3.7-1.7,7.7-2.8,12-3.4c-1-4.7-2.6-9.1-4.9-13.1C221.5,52.4,216,47,209,43
			c-7-3.9-15-5.9-24-5.9c-8.9,0-16.8,2-23.8,5.9c-6.9,3.9-12.4,9.4-16.5,16.3c-2.2,3.8-3.8,8-4.8,12.6c4.3,0.2,8.4,0.9,12.3,2.1
			C152.9,70.6,154,67.5,155.6,64.7z"/>
		<path class="st3" d="M155.6,102.1c-2.7-4.9-4.2-10.5-4.5-16.7c-3.8-1.7-8-2.6-12.5-2.8c0,0.3,0,0.5,0,0.8c0,9,2,17,6.1,24
			c4,7,9.6,12.5,16.6,16.5c2.7,1.6,5.6,2.8,8.6,3.7c0.7-3,1-6.2,1-9.6c0-0.7,0-1.3-0.1-2c-1-0.5-2.1-1-3.1-1.5
			C162.7,111.6,158.6,107.5,155.6,102.1z"/>
		<path class="st3" d="M225.5,107.5c4-7,6-15,6-24c0-0.1,0-0.2,0-0.3c-3.7,0.7-7.2,2-10.4,3.8c-0.8,0.5-1.6,1-2.4,1.5
			c-0.5,5-1.9,9.5-4.2,13.6c-2.5,4.6-5.8,8.3-9.9,11.1c-0.2,1.6-0.3,3.2-0.3,4.9c0,2.7,0.2,5.3,0.7,7.7c1.3-0.6,2.6-1.2,3.8-1.9
			C215.9,120,221.5,114.5,225.5,107.5z"/>
		<path class="st3" d="M185,119c-0.5,0-1.1,0-1.6,0c-0.1,3.8-0.5,7.4-1.2,10.9c0.9,0,1.9,0.1,2.8,0.1c2.8,0,5.5-0.2,8.1-0.6
			c-0.7-3.5-1.1-7.1-1.2-10.9C189.7,118.8,187.4,119,185,119z"/>
		<path class="st3" d="M170.8,116.1c0,0.7,0.1,1.3,0.1,2c0,3.4-0.3,6.6-1,9.6c3.9,1.2,7.9,1.9,12.2,2.2c0.8-3.4,1.2-7.1,1.2-10.9
			C178.9,118.8,174.7,117.9,170.8,116.1z"/>
		<path class="st2" d="M151.2,85.4c0-0.6-0.1-1.3-0.1-1.9c0-3.4,0.3-6.5,1-9.5c-3.8-1.2-7.9-1.9-12.3-2.1c-0.7,3.4-1.2,7-1.2,10.7
			C143.2,82.8,147.3,83.7,151.2,85.4z"/>
		<path class="st4" d="M218.7,88.5c0.2-1.6,0.3-3.3,0.3-5.1c0-2.7-0.2-5.2-0.6-7.7c-1.3,0.6-2.6,1.2-3.9,1.9
			C207.5,81.7,202,87.1,198,94c-4.1,6.9-6.1,15-6.1,24.1c0,0.1,0,0.2,0,0.3c3.8-0.7,7.4-2,10.6-3.8c0.7-0.4,1.5-0.9,2.2-1.4
			c0.5-5.1,2-9.7,4.3-13.8C211.4,94.9,214.7,91.3,218.7,88.5z"/>
		<path class="st4" d="M238.4,82.6c2.6,0,5.1,0.2,7.5,0.7c0-3.8,0.4-7.4,1-10.8c-2.8-0.4-5.7-0.7-8.7-0.7c-2.7,0-5.3,0.2-7.9,0.6
			c0.7,3.4,1.1,7,1.1,10.8C233.7,82.8,236,82.6,238.4,82.6z"/>
		<path class="st4" d="M258.7,89c3.7,2.7,6.8,6.2,9.1,10.5c2.1,3.9,3.5,8.3,4.1,13.1c1,0.7,2,1.4,3.1,2.1c3,1.7,6.3,3,9.7,3.7
			c0,0,0-0.1,0-0.1c0-9.1-2-17.2-6-24.1c-4-6.9-9.5-12.4-16.5-16.3c-1.1-0.6-2.2-1.1-3.3-1.7c-0.4,2.3-0.6,4.8-0.6,7.4
			C258.3,85.3,258.5,87.2,258.7,89z"/>
		<path class="st4" d="M267.8,136.8c-2.9,5.4-7,9.5-12.1,12.5c-5.1,2.9-10.9,4.4-17.5,4.4c-6.4,0-12.1-1.5-17.2-4.4
			c-5.1-2.9-9.1-7.1-12.1-12.5c-1.9-3.3-3.1-7-3.8-10.9c-3.8,1.7-7.7,2.8-12,3.5c1,4.6,2.6,8.9,4.9,12.8c4,7,9.6,12.5,16.6,16.5
			c7,4,14.9,6,23.7,6c8.9,0,16.9-2,23.9-6c7.1-4,12.6-9.5,16.6-16.5c2.2-3.9,3.8-8.2,4.8-12.8c-4.2-0.6-8.2-1.8-12-3.5
			C270.9,129.8,269.6,133.5,267.8,136.8z"/>
		<path class="st4" d="M204.4,118.2c0-1.7,0.1-3.3,0.3-4.9c-0.7,0.5-1.4,1-2.2,1.4c-3.2,1.9-6.7,3.1-10.6,3.8
			c0,3.8,0.4,7.5,1.2,10.9c4.2-0.6,8.2-1.8,12-3.5C204.6,123.4,204.4,120.9,204.4,118.2z"/>
		<path class="st3" d="M219,83.5c0,1.7-0.1,3.4-0.3,5.1c0.8-0.5,1.5-1,2.4-1.5c3.2-1.9,6.7-3.1,10.4-3.8c0-3.8-0.4-7.4-1.1-10.8
			c-4.3,0.6-8.3,1.7-12,3.4C218.7,78.2,219,80.8,219,83.5z"/>
		<path class="st0" d="M326,0.3v54.8c-3.5-5.4-7.9-9.6-13.3-12.7c-6.3-3.6-13.4-5.4-21.4-5.4c-8.7,0-16.5,1.9-23.3,5.8
			c-6.9,3.9-12.3,9.3-16.2,16.2c-2.3,4-3.9,8.5-4.9,13.3c4.3,0.7,8.3,1.9,12,3.6c0.7-4.2,2-7.9,3.9-11.4c3-5.3,7.1-9.5,12.1-12.4
			c5.1-2.9,10.8-4.4,17.2-4.4c6.5,0,12.3,1.5,17.4,4.4c5.1,2.9,9.2,7.1,12.1,12.4c2.9,5.3,4.4,11.6,4.4,18.7
			c0,7.1-1.5,13.3-4.4,18.7c-2.9,5.4-7,9.5-12.1,12.5c-5.1,2.9-11,4.4-17.4,4.4c-2.6,0-5.1-0.3-7.5-0.7c0,3.9-0.4,7.6-1.2,11.1
			c2.5,0.4,5.1,0.6,7.8,0.6c8.1,0,15.3-1.8,21.6-5.5c5.5-3.2,10.1-7.7,13.6-13.5v18.1h11.8V0.3H326z"/>
		<path class="st0" d="M262.9,102.1c-2.2-3.9-3.6-8.3-4.2-13.2c-0.9-0.7-1.9-1.3-2.9-1.9c-3-1.8-6.3-3-9.9-3.7c0,0,0,0.1,0,0.1
			c0,9.1,2,17.2,5.9,24.2c3.9,7,9.3,12.5,16.2,16.4c1.2,0.7,2.4,1.3,3.6,1.8c0.4-2.5,0.6-5,0.6-7.7c0-1.9-0.1-3.8-0.3-5.6
			C268.2,109.8,265.2,106.3,262.9,102.1z"/>
		<path class="st0" d="M275,114.6c-1.1-0.6-2.1-1.3-3.1-2.1c0.2,1.8,0.3,3.7,0.3,5.6c0,2.7-0.2,5.3-0.6,7.7c3.7,1.7,7.7,2.9,12,3.5
			c0.8-3.5,1.2-7.2,1.2-11.1C281.3,117.6,278,116.3,275,114.6z"/>
		<path class="st4" d="M255.7,87c1,0.6,2,1.3,2.9,1.9c-0.2-1.8-0.3-3.6-0.3-5.5c0-2.6,0.2-5,0.6-7.4c-3.7-1.7-7.8-2.9-12-3.6
			c-0.7,3.4-1,7-1,10.8C249.4,84,252.7,85.2,255.7,87z"/>
		<g>
			<polygon class="st0" points="366.9,63.7 384.3,63.7 384.3,56.7 366.9,56.7 366.9,46.8 386.6,46.8 386.6,39.8 358.2,39.8 
				358.2,77.4 366.9,77.4 			"/>
			<rect x="390.6" y="48.5" class="st0" width="8.4" height="28.9"/>
			<path class="st0" d="M394.8,44.5c1.6,0,2.8-0.5,3.8-1.4c0.9-0.9,1.4-2.1,1.4-3.5c0-1.3-0.5-2.4-1.5-3.3c-1-0.8-2.2-1.3-3.8-1.3
				c-1.5,0-2.8,0.4-3.8,1.3c-1,0.9-1.5,2-1.5,3.3c0,1.3,0.5,2.4,1.5,3.3C392,44,393.3,44.5,394.8,44.5z"/>
			<path class="st0" d="M426.6,77.4h8.4V60.9c0-2.9-0.5-5.4-1.6-7.2c-1-1.9-2.5-3.3-4.3-4.2c-1.8-0.9-3.9-1.4-6.2-1.4
				c-2.5,0-4.7,0.5-6.6,1.6c-1.2,0.6-2.1,1.4-3,2.3v-3.5h-8v28.9h8.4V63.1c0-1.8,0.3-3.3,0.9-4.4c0.6-1.1,1.4-2,2.5-2.6
				c1.1-0.6,2.2-0.8,3.6-0.8c1.9,0,3.3,0.6,4.3,1.7c1,1.1,1.5,2.8,1.5,5.2V77.4z"/>
			<path class="st0" d="M446.5,76c2.2,1.2,4.6,1.9,7.4,1.9c2.5,0,4.7-0.5,6.5-1.6c1-0.6,1.8-1.3,2.5-2.2v3.3h8V37.5h-8.4v14
				c-0.7-0.7-1.4-1.3-2.3-1.8c-1.8-1.1-4-1.6-6.4-1.6c-2.7,0-5.2,0.6-7.4,1.8c-2.2,1.2-3.9,2.9-5.2,5.2c-1.3,2.2-1.9,4.9-1.9,7.9
				c0,3,0.6,5.6,1.9,7.9C442.6,73.1,444.4,74.8,446.5,76z M448.9,58.7c0.7-1.2,1.6-2.1,2.7-2.7c1.1-0.6,2.4-1,3.8-1
				c1.4,0,2.6,0.3,3.7,1c1.1,0.6,2,1.6,2.7,2.7c0.7,1.2,1,2.6,1,4.3c0,1.6-0.3,3.1-1,4.3c-0.7,1.2-1.6,2.1-2.7,2.8
				c-1.1,0.6-2.3,1-3.7,1c-1.4,0-2.7-0.3-3.8-1c-1.1-0.6-2-1.6-2.7-2.8c-0.7-1.2-1-2.6-1-4.3C447.9,61.3,448.3,59.9,448.9,58.7z"/>
			<path class="st0" d="M483,75.9c2.5,1.3,5.4,1.9,8.7,1.9c2.6,0,4.9-0.4,6.9-1.2c2-0.8,3.7-2,5-3.5l-4.5-4.8c-1,0.9-2,1.6-3.2,2.1
				c-1.2,0.5-2.5,0.7-4.1,0.7c-1.7,0-3.2-0.3-4.5-0.9c-1.3-0.6-2.3-1.5-3-2.7c-0.4-0.7-0.6-1.4-0.8-2.1h21.9c0-0.4,0.1-0.7,0.1-1.2
				c0-0.4,0.1-0.8,0.1-1.1c0-3.1-0.7-5.8-2-8c-1.3-2.2-3.1-4-5.4-5.2c-2.3-1.2-4.8-1.8-7.7-1.8c-2.9,0-5.6,0.6-7.9,1.9
				c-2.3,1.3-4.2,3-5.5,5.3c-1.3,2.2-2,4.8-2,7.7c0,2.9,0.7,5.4,2,7.7C478.6,72.9,480.5,74.7,483,75.9z M486.9,55.4
				c1.1-0.6,2.4-0.9,3.8-0.9c1.4,0,2.7,0.3,3.8,0.9c1.1,0.6,1.9,1.5,2.5,2.6c0.4,0.7,0.7,1.6,0.8,2.5h-14.2c0.1-0.9,0.4-1.7,0.8-2.4
				C485,56.9,485.8,56,486.9,55.4z"/>
			<path class="st0" d="M518.3,63.8c0-2.8,0.7-4.8,2.1-6.1c1.4-1.3,3.3-2,5.6-2c0.3,0,0.6,0,0.9,0c0.3,0,0.6,0,1,0.1v-7.7
				c-2.7,0-5,0.5-6.9,1.6c-1.2,0.7-2.2,1.6-3,2.7v-3.9h-8v28.9h8.4V63.8z"/>
			<polygon class="st0" points="385.7,91.8 374.1,118.7 362.6,91.8 353.2,91.8 369.5,129.5 378.1,129.5 394.4,91.8 			"/>
			<path class="st0" d="M415.3,103.3c-2.4-2.1-5.9-3.1-10.3-3.1c-2.3,0-4.6,0.3-6.8,0.9c-2.2,0.6-4.1,1.5-5.7,2.6l3,5.9
				c1-0.8,2.3-1.5,3.8-2c1.5-0.5,3-0.7,4.5-0.7c2.3,0,3.9,0.5,5,1.5c1.1,1,1.6,2.4,1.6,4.2h-6.7c-2.9,0-5.3,0.4-7.2,1.1
				c-1.8,0.7-3.2,1.7-4,3c-0.8,1.3-1.3,2.8-1.3,4.5c0,1.6,0.4,3.1,1.3,4.5c0.9,1.3,2.1,2.4,3.7,3.1c1.6,0.8,3.5,1.2,5.8,1.2
				c2.5,0,4.6-0.5,6.2-1.5c1.1-0.7,1.9-1.5,2.6-2.6v3.6h7.9V113C419,108.6,417.8,105.3,415.3,103.3z M408.2,123.3
				c-1.1,0.7-2.4,1-3.8,1c-1.5,0-2.6-0.3-3.5-0.9c-0.8-0.6-1.3-1.5-1.3-2.6c0-1,0.4-1.8,1.1-2.4c0.7-0.6,2.1-1,4.1-1h5.8v3
				C410.1,121.6,409.3,122.6,408.2,123.3z"/>
			<path class="st0" d="M449,101.5c-1.8-0.9-3.9-1.4-6.2-1.4c-2.5,0-4.7,0.5-6.6,1.6c-1.2,0.6-2.1,1.4-3,2.3v-3.5h-8v28.9h8.4v-14.3
				c0-1.8,0.3-3.3,0.9-4.4c0.6-1.1,1.4-2,2.5-2.6c1.1-0.6,2.2-0.8,3.6-0.8c1.9,0,3.3,0.6,4.3,1.7c1,1.1,1.5,2.8,1.5,5.2v15.3h8.4
				v-16.6c0-2.9-0.5-5.4-1.6-7.2C452.2,103.8,450.8,102.4,449,101.5z"/>
			<path class="st0" d="M471.3,108c1.1-0.6,2.4-1,3.9-1c1.3,0,2.6,0.3,3.7,1c1.1,0.6,2.1,1.6,2.8,3l6.5-3.5c-1.1-2.4-2.7-4.2-5-5.5
				c-2.3-1.3-4.9-1.9-8-1.9c-3.1,0-5.9,0.6-8.3,1.9c-2.4,1.3-4.3,3-5.7,5.3c-1.4,2.2-2.1,4.8-2.1,7.7c0,2.9,0.7,5.4,2.1,7.7
				c1.4,2.3,3.3,4,5.7,5.3c2.4,1.3,5.2,1.9,8.3,1.9c3,0,5.7-0.6,8-1.9c2.3-1.3,3.9-3.1,5-5.4l-6.5-3.5c-0.8,1.4-1.7,2.4-2.8,3
				c-1.1,0.6-2.4,0.9-3.7,0.9c-1.4,0-2.7-0.3-3.9-1c-1.1-0.6-2.1-1.6-2.7-2.7c-0.7-1.2-1-2.6-1-4.3c0-1.7,0.3-3.1,1-4.3
				C469.3,109.5,470.2,108.6,471.3,108z"/>
			<path class="st0" d="M513.3,102c-2.4-1.3-5.1-1.9-8.2-1.9c-3.1,0-5.8,0.6-8.2,1.9c-2.4,1.3-4.3,3-5.6,5.3
				c-1.4,2.2-2.1,4.8-2.1,7.7c0,2.9,0.7,5.4,2.1,7.7c1.4,2.2,3.3,4,5.6,5.3c2.4,1.3,5.1,1.9,8.2,1.9c3,0,5.8-0.6,8.2-1.9
				c2.4-1.3,4.3-3.1,5.6-5.3c1.4-2.2,2-4.8,2-7.7c0-2.9-0.7-5.5-2-7.7C517.6,105.1,515.7,103.3,513.3,102z M511.5,119.3
				c-0.6,1.2-1.5,2.1-2.6,2.8c-1.1,0.6-2.4,1-3.8,1c-1.4,0-2.7-0.3-3.8-1c-1.1-0.6-2-1.6-2.7-2.8c-0.7-1.2-1-2.6-1-4.3
				c0-1.7,0.3-3.1,1-4.3c0.7-1.2,1.6-2.1,2.7-2.7c1.1-0.6,2.4-1,3.8-1c1.4,0,2.7,0.3,3.8,1c1.1,0.6,2,1.6,2.6,2.7
				c0.6,1.2,1,2.6,1,4.3C512.5,116.7,512.2,118.1,511.5,119.3z"/>
			<path class="st0" d="M546,114.9c0,1.8-0.3,3.2-0.9,4.4c-0.6,1.2-1.4,2-2.4,2.6c-1,0.6-2.2,0.8-3.4,0.8c-1.9,0-3.3-0.6-4.3-1.7
				c-1-1.1-1.5-2.9-1.5-5.3v-15.1h-8.4v16.4c0,3,0.5,5.4,1.6,7.3c1,1.9,2.5,3.3,4.4,4.3c1.9,0.9,4,1.4,6.4,1.4
				c2.2,0,4.3-0.5,6.2-1.5c1.1-0.6,2-1.4,2.8-2.3v3.4h8v-28.9H546V114.9z"/>
			<polygon class="st0" points="581.5,100.6 573.2,120.3 565.2,100.6 556.5,100.6 568.7,129.5 577.3,129.5 589.6,100.6 			"/>
			<path class="st0" d="M611.8,101.9c-2.3-1.2-4.8-1.8-7.7-1.8c-2.9,0-5.6,0.6-7.9,1.9c-2.3,1.3-4.2,3-5.5,5.3c-1.3,2.2-2,4.8-2,7.7
				c0,2.9,0.7,5.4,2,7.7c1.4,2.2,3.3,4,5.8,5.3c2.5,1.3,5.4,1.9,8.7,1.9c2.6,0,4.9-0.4,6.9-1.2c2-0.8,3.7-2,5-3.5l-4.5-4.8
				c-1,0.9-2,1.6-3.2,2.1c-1.2,0.5-2.5,0.7-4.1,0.7c-1.7,0-3.2-0.3-4.5-0.9c-1.3-0.6-2.3-1.5-3-2.7c-0.4-0.7-0.6-1.4-0.8-2.1H619
				c0-0.4,0.1-0.7,0.1-1.2c0-0.4,0.1-0.8,0.1-1.1c0-3.1-0.7-5.8-2-8C615.9,104.9,614.1,103.1,611.8,101.9z M600.4,107.4
				c1.1-0.6,2.4-0.9,3.8-0.9c1.4,0,2.7,0.3,3.8,0.9c1.1,0.6,1.9,1.5,2.5,2.6c0.4,0.7,0.7,1.6,0.8,2.5h-14.2c0.1-0.9,0.4-1.7,0.8-2.4
				C598.4,108.9,599.3,108,600.4,107.4z"/>
			<path class="st0" d="M634.5,101.7c-1.2,0.7-2.2,1.6-3,2.7v-3.9h-8v28.9h8.4v-13.7c0-2.8,0.7-4.8,2.1-6.1c1.4-1.3,3.3-2,5.6-2
				c0.3,0,0.6,0,0.9,0c0.3,0,0.6,0,1,0.1v-7.7C638.7,100.1,636.4,100.7,634.5,101.7z"/>
		</g>
	</g>
</g>
<g>
</g>
<g>
</g>
<g>
</g>
<g>
</g>
<g>
</g>
<g>
</g>
<g>
</g>
<g>
</g>
<g>
</g>
<g>
</g>
<g>
</g>
<g>
</g>
<g>
</g>
<g>
</g>
<g>
</g>
</svg>
